<svg width="75" height="75" viewBox="0 0 75 75" fill="none" xmlns="http://www.w3.org/2000/svg">
<path d="M0 5C0 2.23858 2.23858 0 5 0H70C72.7614 0 75 2.23858 75 5V70C75 72.7614 72.7614 75 70 75H5C2.23858 75 0 72.7614 0 70V5Z" fill="#15BCE0" fill-opacity="0.1"/>
<path fill-rule="evenodd" clip-rule="evenodd" d="M15 20C15 19.4477 15.4477 19 16 19H46C46.5523 19 47 19.4477 47 20V46C47 46.5523 46.5523 47 46 47H16C15.4477 47 15 46.5523 15 46V20ZM17 21V45H45V21H17Z" fill="#15BCE0"/>
<path fill-rule="evenodd" clip-rule="evenodd" d="M45 30C45 29.4477 45.4477 29 46 29H54C54.2652 29 54.5196 29.1054 54.7071 29.2929L60.7071 35.2929C60.8946 35.4804 61 35.7348 61 36V46C61 46.5523 60.5523 47 60 47H46C45.4477 47 45 46.5523 45 46V30ZM47 31V45H59V36.4142L53.5858 31H47Z" fill="#15BCE0"/>
<path fill-rule="evenodd" clip-rule="evenodd" d="M25 47C22.7909 47 21 48.7909 21 51C21 53.2091 22.7909 55 25 55C27.2091 55 29 53.2091 29 51C29 48.7909 27.2091 47 25 47ZM19 51C19 47.6863 21.6863 45 25 45C28.3137 45 31 47.6863 31 51C31 54.3137 28.3137 57 25 57C21.6863 57 19 54.3137 19 51Z" fill="#15BCE0"/>
<path fill-rule="evenodd" clip-rule="evenodd" d="M51 47C48.7909 47 47 48.7909 47 51C47 53.2091 48.7909 55 51 55C53.2091 55 55 53.2091 55 51C55 48.7909 53.2091 47 51 47ZM45 51C45 47.6863 47.6863 45 51 45C54.3137 45 57 47.6863 57 51C57 54.3137 54.3137 57 51 57C47.6863 57 45 54.3137 45 51Z" fill="#15BCE0"/>
</svg>
