<svg width="22" height="22" viewBox="0 0 22 22" fill="none" xmlns="http://www.w3.org/2000/svg">
<path fill-rule="evenodd" clip-rule="evenodd" d="M6 2C3.79086 2 2 3.79086 2 6V16C2 18.2091 3.79086 20 6 20H16C18.2091 20 20 18.2091 20 16V6C20 3.79086 18.2091 2 16 2H6ZM0 6C0 2.68629 2.68629 0 6 0H16C19.3137 0 22 2.68629 22 6V16C22 19.3137 19.3137 22 16 22H6C2.68629 22 0 19.3137 0 16V6Z" fill="white"/>
<path fill-rule="evenodd" clip-rule="evenodd" d="M11.4833 7.98949C10.8591 7.89693 10.2216 8.00354 9.66151 8.29417C9.10141 8.58479 8.64721 9.04463 8.36351 9.60827C8.07982 10.1719 7.98107 10.8107 8.08132 11.4336C8.18157 12.0566 8.47571 12.6322 8.9219 13.0784C9.36809 13.5245 9.94361 13.8187 10.5666 13.9189C11.1896 14.0192 11.8283 13.9204 12.392 13.6367C12.9556 13.353 13.4155 12.8988 13.7061 12.3387C13.9967 11.7786 14.1033 11.1412 14.0108 10.517C13.9164 9.88029 13.6197 9.29085 13.1645 8.83572C12.7094 8.38058 12.12 8.0839 11.4833 7.98949ZM8.74037 6.51892C9.67386 6.03455 10.7363 5.85685 11.7766 6.01112C12.8378 6.16847 13.8202 6.66295 14.5788 7.4215C15.3373 8.18006 15.8318 9.16247 15.9891 10.2236C16.1434 11.2639 15.9657 12.3264 15.4813 13.2599C14.997 14.1934 14.2306 14.9504 13.2912 15.4232C12.3518 15.896 11.2872 16.0606 10.2489 15.8935C9.21054 15.7265 8.25134 15.2362 7.50768 14.4926C6.76403 13.7489 6.2738 12.7897 6.10672 11.7514C5.93964 10.7131 6.10422 9.64849 6.57704 8.70909C7.04987 7.76969 7.80687 7.00329 8.74037 6.51892Z" fill="white"/>
<path fill-rule="evenodd" clip-rule="evenodd" d="M15.5 5.5C15.5 4.94772 15.9477 4.5 16.5 4.5H16.51C17.0623 4.5 17.51 4.94772 17.51 5.5C17.51 6.05228 17.0623 6.5 16.51 6.5H16.5C15.9477 6.5 15.5 6.05228 15.5 5.5Z" fill="white"/>
</svg>
