<svg width="32" height="32" viewBox="0 0 32 32" fill="none" xmlns="http://www.w3.org/2000/svg">
<path fill-rule="evenodd" clip-rule="evenodd" d="M8.5 2C4.91015 2 2 4.91015 2 8.5V23.5C2 27.0899 4.91015 30 8.5 30H23.5C27.0899 30 30 27.0899 30 23.5V8.5C30 4.91015 27.0899 2 23.5 2H8.5ZM0 8.5C0 3.80558 3.80558 0 8.5 0H23.5C28.1944 0 32 3.80558 32 8.5V23.5C32 28.1944 28.1944 32 23.5 32H8.5C3.80558 32 0 28.1944 0 23.5V8.5Z" fill="white"/>
<path fill-rule="evenodd" clip-rule="evenodd" d="M16.7982 10.9891C15.7579 10.8349 14.6955 11.0126 13.762 11.497C12.8285 11.9813 12.0715 12.7477 11.5987 13.6871C11.1258 14.6265 10.9612 15.6911 11.1283 16.7294C11.2954 17.7677 11.7856 18.7269 12.5293 19.4706C13.2729 20.2143 14.2322 20.7045 15.2705 20.8716C16.3088 21.0386 17.3734 20.8741 18.3128 20.4012C19.2522 19.9284 20.0186 19.1714 20.5029 18.2379C20.9873 17.3044 21.165 16.242 21.0107 15.2016C20.8534 14.1405 20.3589 13.1581 19.6004 12.3995C18.8418 11.641 17.8594 11.1465 16.7982 10.9891ZM12.8408 9.7217C14.1477 9.04358 15.6352 8.79481 17.0916 9.01078C18.5772 9.23108 19.9526 9.92334 21.0146 10.9853C22.0766 12.0473 22.7688 13.4227 22.9891 14.9083C23.2051 16.3647 22.9563 17.8522 22.2782 19.1591C21.6001 20.466 20.5271 21.5258 19.212 22.1877C17.8968 22.8497 16.4064 23.0801 14.9527 22.8462C13.4991 22.6122 12.1562 21.9259 11.1151 20.8848C10.074 19.8437 9.38764 18.5008 9.15373 17.0472C8.91982 15.5935 9.15023 14.1031 9.81218 12.7879C10.4741 11.4728 11.5339 10.3998 12.8408 9.7217Z" fill="white"/>
<path fill-rule="evenodd" clip-rule="evenodd" d="M23.25 7.75C23.25 7.19772 23.6977 6.75 24.25 6.75H24.265C24.8173 6.75 25.265 7.19772 25.265 7.75C25.265 8.30228 24.8173 8.75 24.265 8.75H24.25C23.6977 8.75 23.25 8.30228 23.25 7.75Z" fill="white"/>
</svg>
