<svg width="32" height="32" viewBox="0 0 32 32" fill="none" xmlns="http://www.w3.org/2000/svg">
<path fill-rule="evenodd" clip-rule="evenodd" d="M14.3333 2C7.52181 2 2 7.52182 2 14.3333C2 21.1449 7.52181 26.6667 14.3333 26.6667C21.1448 26.6667 26.6666 21.1449 26.6666 14.3333C26.6666 7.52182 21.1448 2 14.3333 2ZM0 14.3333C0 6.41726 6.41724 0 14.3333 0C22.2494 0 28.6666 6.41726 28.6666 14.3333C28.6666 22.2494 22.2494 28.6667 14.3333 28.6667C6.41724 28.6667 0 22.2494 0 14.3333Z" fill="black"/>
<path fill-rule="evenodd" clip-rule="evenodd" d="M23.0429 23.0429C23.4334 22.6524 24.0666 22.6524 24.4571 23.0429L31.7071 30.2929C32.0976 30.6834 32.0976 31.3166 31.7071 31.7071C31.3166 32.0976 30.6834 32.0976 30.2929 31.7071L23.0429 24.4571C22.6524 24.0666 22.6524 23.4334 23.0429 23.0429Z" fill="black"/>
</svg>
