<svg width="32" height="26" viewBox="0 0 32 26" fill="none" xmlns="http://www.w3.org/2000/svg">
<path fill-rule="evenodd" clip-rule="evenodd" d="M19.5795 0.457388C20.9373 -0.0509417 22.4206 -0.137803 23.8297 0.208023C25.0218 0.500582 26.1142 1.09143 27.0021 1.92016C28.2212 1.50328 29.3754 0.921433 30.431 0.191087L31 1.01345L31.9705 1.25442C31.5044 3.13161 30.5585 4.85598 29.228 6.26709C29.2569 6.51989 29.2718 6.77421 29.2727 7.02891L29.2727 7.03228C29.2727 15.0829 25.3267 20.9486 19.7014 23.8854C14.1027 26.8083 6.93117 26.7846 0.521496 23.2918C0.113646 23.0696 -0.0874892 22.5958 0.0359353 22.148C0.15936 21.7002 0.574849 21.3964 1.03897 21.4145C3.61561 21.515 6.16283 20.9574 8.4361 19.8114C6.14694 18.5347 4.5448 16.9835 3.46245 15.3073C2.13209 13.2469 1.62666 11.0595 1.53515 9.08485C1.44386 7.11511 1.76298 5.33787 2.09979 4.06049C2.26882 3.41942 2.44403 2.89779 2.57856 2.53281C2.64589 2.35015 2.7032 2.20625 2.74473 2.10572C2.76549 2.05544 2.78233 2.01597 2.79451 1.98787L2.80921 1.95432L2.81377 1.94407L2.81534 1.9406L2.81593 1.93928C2.81618 1.93874 2.8164 1.93824 3.72726 2.35097L4.54033 1.76881C5.82141 3.55805 7.53519 5.01074 9.53041 5.99576C11.2351 6.83736 13.0993 7.31487 15 7.40066V7.07897C14.9819 5.64466 15.4126 4.24104 16.2318 3.05748C17.0521 1.87225 18.2215 0.965784 19.5795 0.457388ZM4.08625 4.37603C4.06872 4.4393 4.05118 4.50411 4.0337 4.5704C3.7313 5.71727 3.45383 7.28383 3.533 8.99227C3.61194 10.6958 4.04401 12.5209 5.14263 14.2224C6.23767 15.9183 8.03468 17.5533 10.945 18.822C11.2805 18.9683 11.5093 19.2861 11.5416 19.6507C11.5738 20.0152 11.4043 20.3683 11.0996 20.5711C9.26479 21.7927 7.21507 22.6394 5.0716 23.0779C9.88121 24.617 14.8057 24.1851 18.7758 22.1124C23.7183 19.5322 27.2722 14.364 27.2727 7.03402C27.2716 6.72513 27.2412 6.41695 27.1821 6.11343C27.1173 5.78118 27.2251 5.43872 27.4684 5.20338C28.0625 4.62865 28.5736 3.98313 28.9916 3.28503C28.3466 3.57266 27.6818 3.81796 27.0014 4.0189C26.6294 4.12879 26.2273 4.01357 25.9699 3.72329C25.2848 2.95065 24.3719 2.40043 23.353 2.15038C22.3341 1.9003 21.2613 1.96334 20.2807 2.33043C19.3003 2.69746 18.4618 3.34972 17.8763 4.19568C17.291 5.04136 16.986 6.04073 16.9999 7.05874L17.0001 7.07241H17V8.40992C17 8.9523 16.5676 9.39581 16.0254 9.4096C13.4676 9.47466 10.9323 8.91831 8.64504 7.78912C6.91897 6.93697 5.37406 5.77825 4.08625 4.37603Z" fill="white"/>
</svg>
